<?xml version="1.0" encoding="UTF-8" standalone="no"?>
<!DOCTYPE svg PUBLIC "-//W3C//DTD SVG 1.1//EN"
 "http://www.w3.org/Graphics/SVG/1.1/DTD/svg11.dtd">
<!-- Generated by graphviz version 2.47.0 (20210316.0004)
 -->
<!-- Title: dependencies Pages: 1 -->
<svg width="1224pt" height="284pt"
 viewBox="0.00 0.00 1224.00 284.00" xmlns="http://www.w3.org/2000/svg" xmlns:xlink="http://www.w3.org/1999/xlink">
<g id="graph0" class="graph" transform="scale(1 1) rotate(0) translate(4 280)">
<title>dependencies</title>
<polygon fill="white" stroke="transparent" points="-4,4 -4,-280 1220,-280 1220,4 -4,4"/>
<text text-anchor="start" x="587.01" y="-42.4" font-family="Times-12" font-weight="bold" font-size="14.00">Legend</text>
<polygon fill="#ffffb3" stroke="transparent" points="374,-10 374,-30 394,-30 394,-10 374,-10"/>
<text text-anchor="start" x="397.63" y="-15.4" font-family="Times-12" font-size="14.00"> &#160;Declarations</text>
<polygon fill="#8dd3c7" stroke="transparent" points="487,-10 487,-30 507,-30 507,-10 487,-10"/>
<text text-anchor="start" x="510.73" y="-15.4" font-family="Times-12" font-size="14.00"> &#160;Module</text>
<polygon fill="#80b1d3" stroke="transparent" points="573,-10 573,-30 593,-30 593,-10 573,-10"/>
<text text-anchor="start" x="596.78" y="-15.4" font-family="Times-12" font-size="14.00"> &#160;Bootstrap</text>
<polygon fill="#fdb462" stroke="transparent" points="670,-10 670,-30 690,-30 690,-10 670,-10"/>
<text text-anchor="start" x="693.67" y="-15.4" font-family="Times-12" font-size="14.00"> &#160;Providers</text>
<polygon fill="#fb8072" stroke="transparent" points="766,-10 766,-30 786,-30 786,-10 766,-10"/>
<text text-anchor="start" x="789.73" y="-15.4" font-family="Times-12" font-size="14.00"> &#160;Exports</text>
<g id="clust1" class="cluster">
<title>cluster_AppModule</title>
<polygon fill="none" stroke="black" stroke-dasharray="1,5" points="8,-70 8,-268 1208,-268 1208,-70 8,-70"/>
</g>
<g id="clust2" class="cluster">
<title>cluster_AppModule_declarations</title>
<polygon fill="none" stroke="black" points="168,-78 168,-130 1200,-130 1200,-78 168,-78"/>
</g>
<g id="clust10" class="cluster">
<title>cluster_AppModule_imports</title>
<polygon fill="none" stroke="black" points="16,-78 16,-130 160,-130 160,-78 16,-78"/>
</g>
<g id="clust12" class="cluster">
<title>cluster_AppModule_bootstrap</title>
<polygon fill="none" stroke="black" points="539,-208 539,-260 663,-260 663,-208 539,-208"/>
</g>
<!-- AppComponent -->
<g id="node1" class="node">
<title>AppComponent</title>
<polygon fill="#ffffb3" stroke="black" points="1191.94,-122 1086.06,-122 1086.06,-86 1191.94,-86 1191.94,-122"/>
<text text-anchor="middle" x="1139" y="-99.8" font-family="Times,serif" font-size="14.00">AppComponent</text>
</g>
<!-- AppModule -->
<g id="node8" class="node">
<title>AppModule</title>
<polygon fill="#8dd3c7" stroke="black" points="642.66,-187 639.66,-191 618.66,-191 615.66,-187 559.34,-187 559.34,-151 642.66,-151 642.66,-187"/>
<text text-anchor="middle" x="601" y="-164.8" font-family="Times,serif" font-size="14.00">AppModule</text>
</g>
<!-- AppComponent&#45;&gt;AppModule -->
<g id="edge1" class="edge">
<title>AppComponent&#45;&gt;AppModule</title>
<path fill="none" stroke="black" d="M1139,-122.29C1139,-144.21 1139,-178 1139,-178 1139,-178 652.77,-178 652.77,-178"/>
<polygon fill="black" stroke="black" points="652.77,-174.5 642.77,-178 652.77,-181.5 652.77,-174.5"/>
</g>
<!-- LoginComponent -->
<g id="node2" class="node">
<title>LoginComponent</title>
<polygon fill="#ffffb3" stroke="black" points="1068.28,-122 953.72,-122 953.72,-86 1068.28,-86 1068.28,-122"/>
<text text-anchor="middle" x="1011" y="-99.8" font-family="Times,serif" font-size="14.00">LoginComponent</text>
</g>
<!-- LoginComponent&#45;&gt;AppModule -->
<g id="edge2" class="edge">
<title>LoginComponent&#45;&gt;AppModule</title>
<path fill="none" stroke="black" d="M1011,-122.11C1011,-141.34 1011,-169 1011,-169 1011,-169 652.95,-169 652.95,-169"/>
<polygon fill="black" stroke="black" points="652.95,-165.5 642.95,-169 652.95,-172.5 652.95,-165.5"/>
</g>
<!-- OnboardingComponent -->
<g id="node3" class="node">
<title>OnboardingComponent</title>
<polygon fill="#ffffb3" stroke="black" points="936.2,-122 787.8,-122 787.8,-86 936.2,-86 936.2,-122"/>
<text text-anchor="middle" x="862" y="-99.8" font-family="Times,serif" font-size="14.00">OnboardingComponent</text>
</g>
<!-- OnboardingComponent&#45;&gt;AppModule -->
<g id="edge3" class="edge">
<title>OnboardingComponent&#45;&gt;AppModule</title>
<path fill="none" stroke="black" d="M862,-122.03C862,-138.4 862,-160 862,-160 862,-160 652.93,-160 652.93,-160"/>
<polygon fill="black" stroke="black" points="652.93,-156.5 642.93,-160 652.93,-163.5 652.93,-156.5"/>
</g>
<!-- OtpVerificationComponent -->
<g id="node4" class="node">
<title>OtpVerificationComponent</title>
<polygon fill="#ffffb3" stroke="black" points="769.96,-122 600.04,-122 600.04,-86 769.96,-86 769.96,-122"/>
<text text-anchor="middle" x="685" y="-99.8" font-family="Times,serif" font-size="14.00">OtpVerificationComponent</text>
</g>
<!-- OtpVerificationComponent&#45;&gt;AppModule -->
<g id="edge4" class="edge">
<title>OtpVerificationComponent&#45;&gt;AppModule</title>
<path fill="none" stroke="black" d="M621.42,-122.11C621.42,-122.11 621.42,-140.99 621.42,-140.99"/>
<polygon fill="black" stroke="black" points="617.92,-140.99 621.42,-150.99 624.92,-140.99 617.92,-140.99"/>
</g>
<!-- PaymentComponent -->
<g id="node5" class="node">
<title>PaymentComponent</title>
<polygon fill="#ffffb3" stroke="black" points="582.33,-122 451.67,-122 451.67,-86 582.33,-86 582.33,-122"/>
<text text-anchor="middle" x="517" y="-99.8" font-family="Times,serif" font-size="14.00">PaymentComponent</text>
</g>
<!-- PaymentComponent&#45;&gt;AppModule -->
<g id="edge5" class="edge">
<title>PaymentComponent&#45;&gt;AppModule</title>
<path fill="none" stroke="black" d="M570.67,-122.11C570.67,-122.11 570.67,-140.99 570.67,-140.99"/>
<polygon fill="black" stroke="black" points="567.17,-140.99 570.67,-150.99 574.17,-140.99 567.17,-140.99"/>
</g>
<!-- SignupComponent -->
<g id="node6" class="node">
<title>SignupComponent</title>
<polygon fill="#ffffb3" stroke="black" points="433.51,-122 312.49,-122 312.49,-86 433.51,-86 433.51,-122"/>
<text text-anchor="middle" x="373" y="-99.8" font-family="Times,serif" font-size="14.00">SignupComponent</text>
</g>
<!-- SignupComponent&#45;&gt;AppModule -->
<g id="edge6" class="edge">
<title>SignupComponent&#45;&gt;AppModule</title>
<path fill="none" stroke="black" d="M373,-122.03C373,-138.4 373,-160 373,-160 373,-160 549.18,-160 549.18,-160"/>
<polygon fill="black" stroke="black" points="549.18,-163.5 559.18,-160 549.18,-156.5 549.18,-163.5"/>
</g>
<!-- SplashComponent -->
<g id="node7" class="node">
<title>SplashComponent</title>
<polygon fill="#ffffb3" stroke="black" points="294.17,-122 175.83,-122 175.83,-86 294.17,-86 294.17,-122"/>
<text text-anchor="middle" x="235" y="-99.8" font-family="Times,serif" font-size="14.00">SplashComponent</text>
</g>
<!-- SplashComponent&#45;&gt;AppModule -->
<g id="edge7" class="edge">
<title>SplashComponent&#45;&gt;AppModule</title>
<path fill="none" stroke="black" d="M235,-122.11C235,-141.34 235,-169 235,-169 235,-169 549.02,-169 549.02,-169"/>
<polygon fill="black" stroke="black" points="549.02,-172.5 559.02,-169 549.02,-165.5 549.02,-172.5"/>
</g>
<!-- AppComponent  -->
<g id="node10" class="node">
<title>AppComponent </title>
<polygon fill="#80b1d3" stroke="black" points="655.44,-252 546.56,-252 546.56,-216 655.44,-216 655.44,-252"/>
<text text-anchor="middle" x="601" y="-229.8" font-family="Times,serif" font-size="14.00">AppComponent </text>
</g>
<!-- AppModule&#45;&gt;AppComponent  -->
<g id="edge9" class="edge">
<title>AppModule&#45;&gt;AppComponent </title>
<path fill="none" stroke="black" stroke-dasharray="1,5" d="M601,-187.11C601,-187.11 601,-205.99 601,-205.99"/>
<polygon fill="black" stroke="black" points="597.5,-205.99 601,-215.99 604.5,-205.99 597.5,-205.99"/>
</g>
<!-- AppRoutingModule -->
<g id="node9" class="node">
<title>AppRoutingModule</title>
<polygon fill="#8dd3c7" stroke="black" points="152.27,-122 149.27,-126 128.27,-126 125.27,-122 23.73,-122 23.73,-86 152.27,-86 152.27,-122"/>
<text text-anchor="middle" x="88" y="-99.8" font-family="Times,serif" font-size="14.00">AppRoutingModule</text>
</g>
<!-- AppRoutingModule&#45;&gt;AppModule -->
<g id="edge8" class="edge">
<title>AppRoutingModule&#45;&gt;AppModule</title>
<path fill="none" stroke="black" d="M88,-122.29C88,-144.21 88,-178 88,-178 88,-178 549.02,-178 549.02,-178"/>
<polygon fill="black" stroke="black" points="549.02,-181.5 559.02,-178 549.02,-174.5 549.02,-181.5"/>
</g>
</g>
</svg>
