<svg version="1.1" xmlns:cc="http://creativecommons.org/ns#" xmlns:dc="http://purl.org/dc/elements/1.1/" xmlns:rdf="http://www.w3.org/1999/02/22-rdf-syntax-ns#" xmlns="http://www.w3.org/2000/svg" xmlns:xlink="http://www.w3.org/1999/xlink" x="0px" y="0px" viewBox="0 0 1024 768" xml:space="preserve">
<style>
#bounce{
	animation: bounce 2s ease-in-out infinite;
}

@keyframes bounce {
    0%,
    25%,
    50%,
    75%,
    100% {
        transform: translateY(0);
    }
    40% {
        transform: translateY(-30px);
    }
    60% {
        transform: translateY(-15px);
    }
}
</style>
<g id="bounce">

 
 <g id="logo-group" stroke-width="1.24" stroke-miterlimit="2" transform="translate(-.12187) scale(1)">
  <path id="path257704" style="font-variant-ligatures:none" d="m298.55 284.12v78.12h50.666v-5.1336h-44.975v-72.99z" stroke="#00c9ff" fill="#00c9ff"/>
  <path id="path257706" style="font-variant-ligatures:none" d="m360.15 329.76v5.022h28.681v-5.022z" stroke="#00b1ff" fill="#00b1ff"/>
  <path id="path257708" style="font-variant-ligatures:none" d="m464.56 320.05h-50.555v5.022h50.555zm0-35.935h-50.555v5.1336h50.555zm-50.555 72.986v5.1336h50.555v-5.1336z" stroke="#09f" fill="#09f"/>
  <path id="path257710" style="font-variant-ligatures:none" d="m521.99 284.12h-5.6916l-35.935 78.12h6.138l32.587-71.87 32.699 71.87h6.138z" stroke="#0082ff" fill="#0082ff"/>
  <path id="path257712" style="font-variant-ligatures:none" d="m617.93 334.9c5.8032-1.674 10.379-4.5756 13.504-8.8164 3.1248-4.2408 4.7988-9.3744 4.7988-15.624 0-8.1468-2.79-14.62-8.37-19.307-5.58-4.6872-13.28-7.0308-23.101-7.0308h-28.012v5.1336h28.012c8.2584 0 14.62 1.8972 19.084 5.58 4.3524 3.6828 6.5844 8.928 6.5844 15.624 0 6.8076-2.232 12.053-6.5844 15.736-4.464 3.6828-10.825 5.4684-19.084 5.4684h-28.012v30.578h5.6916v-25.556h22.32c2.232 0 4.7988-0.1116 7.5888-0.558l18.637 26.114h6.4728z" stroke="#006aff" fill="#006aff"/>
  <path id="path257714" style="font-variant-ligatures:none" d="m725.45 284.12h-5.6916v67.853l-53.13-67.85h-4.7988v78.12h5.6916v-67.853l53.233 67.853h4.6872z" stroke="#0152ce" fill="#0152ce"/>
  <path id="path257716" style="font-variant-ligatures:none" d="m269.84 410.34v72.986h5.6916v-72.986h28.123v-5.1336h-61.938v5.1336z" stroke="#023a90" fill="#023a90"/>
  <path id="path257718" style="font-variant-ligatures:none" d="m363.49 455.98c5.8032-1.674 10.379-4.5756 13.504-8.8164 3.1248-4.2408 4.7988-9.3744 4.7988-15.624 0-8.1468-2.79-14.62-8.37-19.307-5.58-4.6872-13.28-7.0308-23.101-7.0308h-28.012v5.1336h28.012c8.2584 0 14.62 1.8972 19.084 5.58 4.3524 3.6828 6.5844 8.928 6.5844 15.624 0 6.8076-2.232 12.053-6.5844 15.736-4.464 3.6828-10.825 5.4684-19.084 5.4684h-28.012v30.578h5.6916v-25.556h22.32c2.232 0 4.7988-0.1116 7.5888-0.558l18.637 26.114h6.4728z" stroke="#032253" fill="#032253"/>
  <path id="path257720" style="font-variant-ligatures:none" d="m435.96 405.2h-5.6916l-35.935 78.12h6.138l32.587-71.87 32.699 71.87h6.138z" stroke="#040b15" fill="#040b15"/>
  <path id="path257722" style="font-variant-ligatures:none" d="m557.91 424.18c-3.5712-5.9148-8.4816-10.49-14.731-13.95-6.2496-3.348-13.504-5.022-21.539-5.022h-30.913v5.1336h30.467c7.1424 0 13.504 1.4508 19.084 4.3524 5.4684 2.9016 9.7092 6.9192 12.722 11.941 2.9016 5.1336 4.464 11.048 4.464 17.633 0 6.696-1.5624 12.499-4.464 17.633-3.0132 5.1336-7.254 9.1512-12.722 12.053-5.58 2.9016-11.941 4.2408-19.084 4.2408h-24.775v-33.93h-5.6916v39.06h30.913c8.0352 0 15.289-1.674 21.539-5.022 6.2496-3.348 11.16-7.9236 14.731-13.838 3.4596-5.9148 5.2452-12.611 5.2452-20.2 0-7.4772-1.7856-14.173-5.2452-20.088z" stroke="#050000" fill="#050000"/>
  <path id="path257724" style="font-variant-ligatures:none" d="m587.58 405.2v78.12h5.6916v-78.12z" stroke="#060000" fill="#060000"/>
  <path id="path257726" style="font-variant-ligatures:none" d="m688.75 405.2h-5.6916v67.853l-53.122-67.853h-4.7988v78.12h5.6916v-67.853l53.233 67.853h4.6872z" stroke="#070000" fill="#070000"/>
  <path id="path257728" style="font-variant-ligatures:none" d="m776.48 444.6v26.896c-5.9148 4.7988-13.28 7.1424-22.208 7.1424-6.696 0-12.722-1.4508-18.079-4.464-5.3568-3.0132-9.5976-7.1424-12.722-12.388-3.1248-5.2452-4.5756-11.048-4.5756-17.521 0-6.4728 1.4508-12.276 4.5756-17.521 3.0132-5.2452 7.254-9.3744 12.611-12.388 5.3568-2.9016 11.495-4.464 18.191-4.464 4.9104 0 9.3744 0.7812 13.392 2.232s7.7004 3.7944 11.048 7.0308l3.5712-3.7944c-3.4596-3.4596-7.5888-6.138-12.388-7.9236-4.7988-1.7856-10.044-2.79-15.736-2.79-7.812 0-14.843 1.7856-21.092 5.1336-6.2496 3.4596-11.048 8.1468-14.62 14.173-3.5712 6.0264-5.2452 12.834-5.2452 20.311 0 7.5888 1.674 14.285 5.2452 20.311 3.5712 6.0264 8.37 10.825 14.62 14.173 6.2496 3.4596 13.169 5.1336 20.981 5.1336 5.3568 0 10.49-0.7812 15.401-2.5668 4.9104-1.674 9.0396-4.1292 12.499-7.4772v-29.239z" stroke="#080000" fill="#080000"/>
 </g>

</g>

</svg>