<?xml version="1.0" encoding="UTF-8" standalone="no"?>
<!DOCTYPE svg PUBLIC "-//W3C//DTD SVG 1.1//EN"
 "http://www.w3.org/Graphics/SVG/1.1/DTD/svg11.dtd">
<!-- Generated by graphviz version 2.47.0 (20210316.0004)
 -->
<!-- Title: dependencies Pages: 1 -->
<svg width="1224pt" height="284pt"
 viewBox="0.00 0.00 1224.00 284.00" xmlns="http://www.w3.org/2000/svg" xmlns:xlink="http://www.w3.org/1999/xlink">
<g id="graph0" class="graph" transform="scale(1 1) rotate(0) translate(4 280)">
<title>dependencies</title>
<polygon fill="white" stroke="transparent" points="-4,4 -4,-280 1220,-280 1220,4 -4,4"/>
<text text-anchor="start" x="587.01" y="-42.4" font-family="Times-12" font-weight="bold" font-size="14.00">Legend</text>
<polygon fill="#ffffb3" stroke="transparent" points="374,-10 374,-30 394,-30 394,-10 374,-10"/>
<text text-anchor="start" x="397.63" y="-15.4" font-family="Times-12" font-size="14.00"> &#160;Declarations</text>
<polygon fill="#8dd3c7" stroke="transparent" points="487,-10 487,-30 507,-30 507,-10 487,-10"/>
<text text-anchor="start" x="510.73" y="-15.4" font-family="Times-12" font-size="14.00"> &#160;Module</text>
<polygon fill="#80b1d3" stroke="transparent" points="573,-10 573,-30 593,-30 593,-10 573,-10"/>
<text text-anchor="start" x="596.78" y="-15.4" font-family="Times-12" font-size="14.00"> &#160;Bootstrap</text>
<polygon fill="#fdb462" stroke="transparent" points="670,-10 670,-30 690,-30 690,-10 670,-10"/>
<text text-anchor="start" x="693.67" y="-15.4" font-family="Times-12" font-size="14.00"> &#160;Providers</text>
<polygon fill="#fb8072" stroke="transparent" points="766,-10 766,-30 786,-30 786,-10 766,-10"/>
<text text-anchor="start" x="789.73" y="-15.4" font-family="Times-12" font-size="14.00"> &#160;Exports</text>
<g id="clust1" class="cluster">
<title>cluster_AppModule</title>
<polygon fill="none" stroke="black" stroke-dasharray="1,5" points="8,-70 8,-268 1208,-268 1208,-70 8,-70"/>
</g>
<g id="clust10" class="cluster">
<title>cluster_AppModule_imports</title>
<polygon fill="none" stroke="black" points="1056,-78 1056,-130 1200,-130 1200,-78 1056,-78"/>
</g>
<g id="clust12" class="cluster">
<title>cluster_AppModule_bootstrap</title>
<polygon fill="none" stroke="black" points="559,-208 559,-260 683,-260 683,-208 559,-208"/>
</g>
<g id="clust2" class="cluster">
<title>cluster_AppModule_declarations</title>
<polygon fill="none" stroke="black" points="16,-78 16,-130 1048,-130 1048,-78 16,-78"/>
</g>
<!-- AppComponent -->
<g id="node1" class="node">
<title>AppComponent</title>
<polygon fill="#ffffb3" stroke="black" points="1039.94,-122 934.06,-122 934.06,-86 1039.94,-86 1039.94,-122"/>
<text text-anchor="middle" x="987" y="-99.8" font-family="Times,serif" font-size="14.00">AppComponent</text>
</g>
<!-- AppModule -->
<g id="node8" class="node">
<title>AppModule</title>
<polygon fill="#8dd3c7" stroke="black" points="662.66,-187 659.66,-191 638.66,-191 635.66,-187 579.34,-187 579.34,-151 662.66,-151 662.66,-187"/>
<text text-anchor="middle" x="621" y="-164.8" font-family="Times,serif" font-size="14.00">AppModule</text>
</g>
<!-- AppComponent&#45;&gt;AppModule -->
<g id="edge1" class="edge">
<title>AppComponent&#45;&gt;AppModule</title>
<path fill="none" stroke="black" d="M987,-122.11C987,-141.34 987,-169 987,-169 987,-169 672.98,-169 672.98,-169"/>
<polygon fill="black" stroke="black" points="672.98,-165.5 662.98,-169 672.98,-172.5 672.98,-165.5"/>
</g>
<!-- LoginComponent -->
<g id="node2" class="node">
<title>LoginComponent</title>
<polygon fill="#ffffb3" stroke="black" points="916.28,-122 801.72,-122 801.72,-86 916.28,-86 916.28,-122"/>
<text text-anchor="middle" x="859" y="-99.8" font-family="Times,serif" font-size="14.00">LoginComponent</text>
</g>
<!-- LoginComponent&#45;&gt;AppModule -->
<g id="edge2" class="edge">
<title>LoginComponent&#45;&gt;AppModule</title>
<path fill="none" stroke="black" d="M859,-122.03C859,-138.4 859,-160 859,-160 859,-160 672.73,-160 672.73,-160"/>
<polygon fill="black" stroke="black" points="672.73,-156.5 662.73,-160 672.73,-163.5 672.73,-156.5"/>
</g>
<!-- OnboardingComponent -->
<g id="node3" class="node">
<title>OnboardingComponent</title>
<polygon fill="#ffffb3" stroke="black" points="784.2,-122 635.8,-122 635.8,-86 784.2,-86 784.2,-122"/>
<text text-anchor="middle" x="710" y="-99.8" font-family="Times,serif" font-size="14.00">OnboardingComponent</text>
</g>
<!-- OnboardingComponent&#45;&gt;AppModule -->
<g id="edge3" class="edge">
<title>OnboardingComponent&#45;&gt;AppModule</title>
<path fill="none" stroke="black" d="M649.36,-122.11C649.36,-122.11 649.36,-140.99 649.36,-140.99"/>
<polygon fill="black" stroke="black" points="645.86,-140.99 649.36,-150.99 652.86,-140.99 645.86,-140.99"/>
</g>
<!-- OtpVerificationComponent -->
<g id="node4" class="node">
<title>OtpVerificationComponent</title>
<polygon fill="#ffffb3" stroke="black" points="617.96,-122 448.04,-122 448.04,-86 617.96,-86 617.96,-122"/>
<text text-anchor="middle" x="533" y="-99.8" font-family="Times,serif" font-size="14.00">OtpVerificationComponent</text>
</g>
<!-- OtpVerificationComponent&#45;&gt;AppModule -->
<g id="edge4" class="edge">
<title>OtpVerificationComponent&#45;&gt;AppModule</title>
<path fill="none" stroke="black" d="M598.58,-122.11C598.58,-122.11 598.58,-140.99 598.58,-140.99"/>
<polygon fill="black" stroke="black" points="595.08,-140.99 598.58,-150.99 602.08,-140.99 595.08,-140.99"/>
</g>
<!-- PaymentComponent -->
<g id="node5" class="node">
<title>PaymentComponent</title>
<polygon fill="#ffffb3" stroke="black" points="430.33,-122 299.67,-122 299.67,-86 430.33,-86 430.33,-122"/>
<text text-anchor="middle" x="365" y="-99.8" font-family="Times,serif" font-size="14.00">PaymentComponent</text>
</g>
<!-- PaymentComponent&#45;&gt;AppModule -->
<g id="edge5" class="edge">
<title>PaymentComponent&#45;&gt;AppModule</title>
<path fill="none" stroke="black" d="M365,-122.03C365,-138.4 365,-160 365,-160 365,-160 569.3,-160 569.3,-160"/>
<polygon fill="black" stroke="black" points="569.3,-163.5 579.3,-160 569.3,-156.5 569.3,-163.5"/>
</g>
<!-- SignupComponent -->
<g id="node6" class="node">
<title>SignupComponent</title>
<polygon fill="#ffffb3" stroke="black" points="281.51,-122 160.49,-122 160.49,-86 281.51,-86 281.51,-122"/>
<text text-anchor="middle" x="221" y="-99.8" font-family="Times,serif" font-size="14.00">SignupComponent</text>
</g>
<!-- SignupComponent&#45;&gt;AppModule -->
<g id="edge6" class="edge">
<title>SignupComponent&#45;&gt;AppModule</title>
<path fill="none" stroke="black" d="M221,-122.11C221,-141.34 221,-169 221,-169 221,-169 569.32,-169 569.32,-169"/>
<polygon fill="black" stroke="black" points="569.33,-172.5 579.32,-169 569.32,-165.5 569.33,-172.5"/>
</g>
<!-- SplashComponent -->
<g id="node7" class="node">
<title>SplashComponent</title>
<polygon fill="#ffffb3" stroke="black" points="142.17,-122 23.83,-122 23.83,-86 142.17,-86 142.17,-122"/>
<text text-anchor="middle" x="83" y="-99.8" font-family="Times,serif" font-size="14.00">SplashComponent</text>
</g>
<!-- SplashComponent&#45;&gt;AppModule -->
<g id="edge7" class="edge">
<title>SplashComponent&#45;&gt;AppModule</title>
<path fill="none" stroke="black" d="M83,-122.29C83,-144.21 83,-178 83,-178 83,-178 569.23,-178 569.23,-178"/>
<polygon fill="black" stroke="black" points="569.23,-181.5 579.23,-178 569.23,-174.5 569.23,-181.5"/>
</g>
<!-- AppComponent  -->
<g id="node10" class="node">
<title>AppComponent </title>
<polygon fill="#80b1d3" stroke="black" points="675.44,-252 566.56,-252 566.56,-216 675.44,-216 675.44,-252"/>
<text text-anchor="middle" x="621" y="-229.8" font-family="Times,serif" font-size="14.00">AppComponent </text>
</g>
<!-- AppModule&#45;&gt;AppComponent  -->
<g id="edge9" class="edge">
<title>AppModule&#45;&gt;AppComponent </title>
<path fill="none" stroke="black" stroke-dasharray="1,5" d="M621,-187.11C621,-187.11 621,-205.99 621,-205.99"/>
<polygon fill="black" stroke="black" points="617.5,-205.99 621,-215.99 624.5,-205.99 617.5,-205.99"/>
</g>
<!-- AppRoutingModule -->
<g id="node9" class="node">
<title>AppRoutingModule</title>
<polygon fill="#8dd3c7" stroke="black" points="1192.27,-122 1189.27,-126 1168.27,-126 1165.27,-122 1063.73,-122 1063.73,-86 1192.27,-86 1192.27,-122"/>
<text text-anchor="middle" x="1128" y="-99.8" font-family="Times,serif" font-size="14.00">AppRoutingModule</text>
</g>
<!-- AppRoutingModule&#45;&gt;AppModule -->
<g id="edge8" class="edge">
<title>AppRoutingModule&#45;&gt;AppModule</title>
<path fill="none" stroke="black" d="M1128,-122.29C1128,-144.21 1128,-178 1128,-178 1128,-178 672.92,-178 672.92,-178"/>
<polygon fill="black" stroke="black" points="672.92,-174.5 662.92,-178 672.92,-181.5 672.92,-174.5"/>
</g>
</g>
</svg>
